<svg width="126" height="77" viewBox="0 0 126 77" fill="none" xmlns="http://www.w3.org/2000/svg">
<g clip-path="url(#clip0_178_634)">
<path d="M20.6788 62.569C19.5946 61.6159 18.0649 61.1401 16.0897 61.1416H9.64438V76.9997H12.6522V72.3334H16.0897C18.0634 72.3334 19.5931 71.8308 20.6788 70.8257C21.7645 69.8205 22.3066 68.4119 22.3052 66.5997C22.3052 64.8642 21.7631 63.5207 20.6788 62.569ZM18.5475 68.9123C17.9417 69.4113 17.0701 69.66 15.9329 69.6586H12.6587V63.8012H15.9329C17.0701 63.8012 17.9417 64.0428 18.5475 64.5258C19.1534 65.0089 19.4563 65.732 19.4563 66.6952C19.4563 67.6743 19.1534 68.4133 18.5475 68.9123ZM72.1406 55.6791C74.3019 55.622 76.4394 55.2072 78.4678 54.4512C80.6463 53.6109 82.3765 52.3433 83.6584 50.6483C84.9403 48.9533 85.5805 46.8786 85.5791 44.4243C85.5791 42.0047 84.989 40.0566 83.8088 38.58C82.6993 37.1603 81.2705 36.0284 79.6408 35.2782C77.663 34.4225 75.6285 33.707 73.5521 33.137C71.3908 32.5339 69.8109 31.9714 68.8126 31.4493C67.8143 30.9272 67.313 30.1968 67.3087 29.2582C67.2937 28.956 67.3571 28.655 67.4928 28.3852C67.6285 28.1154 67.8316 27.8861 68.0822 27.7201C68.5978 27.3686 69.3046 27.1929 70.2027 27.1929C71.635 27.1929 73.4647 27.5791 75.692 28.3514C77.8269 29.0802 79.8834 30.025 81.8301 31.1716L85.6801 23.1036C83.5707 21.7831 81.2853 20.7735 78.8931 20.1056C76.3471 19.3578 73.7093 18.9765 71.0578 18.9731C68.1631 18.9731 65.6265 19.4265 63.448 20.3333C61.2694 21.2401 59.5815 22.5418 58.3841 24.2382C57.1852 25.9347 56.5858 27.9247 56.5858 30.2084C56.5858 32.56 57.168 34.4582 58.3325 35.903C59.4315 37.2974 60.8543 38.3965 62.4747 39.1028C64.4374 39.9129 66.4558 40.5778 68.514 41.0922C70.6753 41.6707 72.2716 42.2166 73.3029 42.73C74.3341 43.2435 74.8498 43.9912 74.8498 44.9732C74.8651 45.3396 74.7863 45.7037 74.621 46.0302C74.4557 46.3568 74.2096 46.6346 73.9066 46.8367C73.275 47.2705 72.3934 47.4875 71.2619 47.4875C69.4314 47.4875 67.2443 46.9582 64.7005 45.8995C62.35 44.9622 60.167 43.6431 58.238 41.9946L54.345 49.9562C55.2848 50.7128 56.2819 51.3939 57.327 51.9933C58.3179 50.7047 59.6574 49.7338 61.1835 49.1982C62.7096 48.6626 64.3567 48.5853 65.9254 48.9756C67.4941 49.3658 68.9172 50.207 70.0222 51.3971C71.1272 52.5873 71.8667 54.0754 72.1513 55.6812L72.1406 55.6791ZM50.7979 19.778H40.4187V55.102H50.7979V19.778ZM114.92 55.102H126L111.577 19.778H100.9L85.9787 55.102H96.6587L98.7534 49.4616H112.875L114.92 55.102ZM101.647 41.7994L105.944 30.2604L110.136 41.7994H101.647ZM27.0468 19.778L19.0632 44.2161L11.0774 19.778H0L13.3741 55.102H24.1528L37.6752 19.778H27.0468ZM77.9435 71.3594L72.74 61.1416H71.2984C70.7964 62.0908 70.1206 62.9352 69.3068 63.6299V76.9997H72.0439V65.6278L76.9574 75.3684H78.891L83.7895 65.6278V76.9997H86.5481V61.1416H83.1105L77.9435 71.3594ZM94.8819 76.9997H97.8897V61.1416H94.8819V76.9997ZM60.7216 69.7735C61.2742 68.8118 61.5495 67.7133 61.5165 66.6019C61.5188 66.1408 61.4742 65.6806 61.3833 65.2287C59.3321 64.5689 57.6111 63.1372 56.5772 61.2305C56.1026 61.17 55.6247 61.1403 55.1464 61.1416H48.6V76.9997H51.6079V72.3334H55.1528C55.34 72.3362 55.5272 72.3282 55.7135 72.3095L58.427 76.9997H61.8646L58.4098 71.7433C59.3689 71.3509 60.1798 70.6611 60.7259 69.7735H60.7216ZM57.7481 68.9058C57.1509 69.4047 56.2836 69.6535 55.1464 69.6521H51.6057V63.7947H55.1507C56.2879 63.7947 57.1552 64.0363 57.7524 64.5193C58.3497 65.0023 58.649 65.7255 58.6505 66.6887C58.6519 67.6721 58.3526 68.4133 57.7524 68.9123L57.7481 68.9058ZM104.481 63.8316H109.371V76.9932H112.4V63.8381H117.305V61.1416H104.485L104.481 63.8316ZM32.2933 70.3549H39.9203V67.7105H32.2933V63.7926H40.7969V61.1416H29.2812V76.9997H41.0611V74.3488H32.289L32.2933 70.3549Z" fill="#264B7C"/>
<path d="M68.0885 62.6516L66.4514 61.0159C65.4846 61.9299 64.4147 62.387 63.2416 62.387C62.6304 62.3955 62.0256 62.2595 61.4756 61.99C60.9666 61.7434 60.5342 61.3607 60.2252 60.8836C59.9202 60.4078 59.7617 59.8514 59.7698 59.2847C59.7503 58.6537 59.9674 58.0386 60.3778 57.5623C60.8586 57.0435 61.4258 56.614 62.0536 56.2932C61.7539 55.8851 61.5022 55.4432 61.3037 54.9764C61.1499 54.6029 61.0689 54.2029 61.0653 53.7984C61.0538 53.4558 61.1187 53.1149 61.2552 52.801C61.3916 52.4871 61.5962 52.2082 61.8537 51.9848C62.378 51.5234 63.0769 51.292 63.9506 51.2906C64.455 51.2817 64.9555 51.3823 65.418 51.5856C65.8247 51.7614 66.1729 52.0512 66.4214 52.4208C66.6591 52.7832 66.7826 53.2097 66.7758 53.6444C66.7849 53.9559 66.7291 54.2659 66.6122 54.5544C66.4952 54.8429 66.3197 55.1034 66.0969 55.3191C65.5256 55.8415 64.8805 56.2751 64.1827 56.6056C64.7799 57.2694 65.4796 58.0019 66.2817 58.8031C66.6565 58.2085 66.9574 57.5695 67.1776 56.9006L68.4903 57.8833C68.2228 58.6038 67.8615 59.2852 67.4161 59.9095L69.1348 61.5908L68.0885 62.6516ZM65.3708 59.9399C64.3295 58.8841 63.4966 58.0063 62.8721 57.3063C62.4715 57.5231 62.1087 57.8045 61.7979 58.1393C61.5566 58.4109 61.4248 58.7638 61.4284 59.1286C61.4208 59.3639 61.4652 59.5979 61.5585 59.8137C61.6518 60.0295 61.7916 60.2216 61.9676 60.3759C62.3386 60.7027 62.8184 60.8755 63.3104 60.8597C64.0251 60.8597 64.7119 60.5531 65.3708 59.9399ZM63.3813 55.6011C63.8619 55.3644 64.3086 55.063 64.709 54.7052C64.8549 54.5724 64.9714 54.4101 65.051 54.2288C65.1305 54.0475 65.1714 53.8513 65.171 53.653C65.1768 53.503 65.1502 53.3535 65.0931 53.2149C65.0359 53.0763 64.9496 52.9519 64.8401 52.8504C64.5986 52.64 64.2864 52.5312 63.9678 52.5467C63.7938 52.5384 63.6199 52.5659 63.4567 52.6274C63.2935 52.6889 63.1443 52.7832 63.0182 52.9046C62.8989 53.0213 62.8049 53.1618 62.7424 53.3172C62.6799 53.4726 62.6502 53.6394 62.6551 53.8071C62.6551 54.3082 62.8957 54.9069 63.3791 55.5925L63.3813 55.6011Z" fill="#FF8141"/>
<path d="M42.8508 26.1128H42.5801V29.3886H42.8508V26.1128Z" fill="white"/>
<path d="M42.3674 26.1128H42.0967V29.3886H42.3674V26.1128Z" fill="white"/>
<path d="M42.8508 31.3862H42.5801V34.662H42.8508V31.3862Z" fill="white"/>
<path d="M42.3674 31.3862H42.0967V34.662H42.3674V31.3862Z" fill="white"/>
<path d="M42.8508 36.6626H42.5801V39.9384H42.8508V36.6626Z" fill="white"/>
<path d="M42.3674 36.6626H42.0967V39.9384H42.3674V36.6626Z" fill="white"/>
<path d="M42.8508 41.9385H42.5801V45.2142H42.8508V41.9385Z" fill="white"/>
<path d="M42.3674 41.9385H42.0967V45.2142H42.3674V41.9385Z" fill="white"/>
<path d="M42.8508 47.2119H42.5801V50.4877H42.8508V47.2119Z" fill="white"/>
<path d="M42.3674 47.2119H42.0967V50.4877H42.3674V47.2119Z" fill="white"/>
<path d="M49.7172 26.1128H49.4465V29.3886H49.7172V26.1128Z" fill="white"/>
<path d="M49.2338 26.1128H48.9631V29.3886H49.2338V26.1128Z" fill="white"/>
<path d="M49.7172 31.3862H49.4465V34.662H49.7172V31.3862Z" fill="white"/>
<path d="M49.2338 31.3862H48.9631V34.662H49.2338V31.3862Z" fill="white"/>
<path d="M49.7172 36.6626H49.4465V39.9384H49.7172V36.6626Z" fill="white"/>
<path d="M49.2338 36.6626H48.9631V39.9384H49.2338V36.6626Z" fill="white"/>
<path d="M49.7172 41.9385H49.4465V45.2142H49.7172V41.9385Z" fill="white"/>
<path d="M49.2338 41.9385H48.9631V45.2142H49.2338V41.9385Z" fill="white"/>
<path d="M49.7172 47.2119H49.4465V50.4877H49.7172V47.2119Z" fill="white"/>
<path d="M49.2338 47.2119H48.9631V50.4877H49.2338V47.2119Z" fill="white"/>
<path d="M46.2132 20.7563H45.5321V54.744H46.2132V20.7563Z" fill="white"/>
<path d="M46.3635 40.9709C46.3781 40.9517 46.3912 40.9314 46.4027 40.9102C46.3918 40.9297 46.3766 40.9514 46.3635 40.9709ZM46.3635 40.9709C46.3781 40.9517 46.3912 40.9314 46.4027 40.9102C46.3918 40.9297 46.3766 40.9514 46.3635 40.9709Z" fill="#FF8141"/>
<path d="M46.407 40.9102C46.3955 40.9314 46.3824 40.9517 46.3678 40.9709C46.3765 40.9514 46.3917 40.9297 46.407 40.9102Z" fill="#E3F2ED"/>
<path d="M46.407 40.9102C46.3955 40.9314 46.3824 40.9517 46.3678 40.9709C46.3765 40.9514 46.3917 40.9297 46.407 40.9102Z" fill="white"/>
<path d="M48.4024 18.5893C47.9491 23.7459 47.4206 28.9025 47.6913 34.0548L51.6208 37.0919C51.7198 37.1684 51.8 37.2669 51.8552 37.3798C51.9103 37.4926 51.9389 37.6169 51.9388 37.7427V38.1332L47.6419 36.8186C47.427 37.3306 47.1907 37.8404 46.9329 38.3523C46.9047 38.5988 46.7971 38.829 46.6267 39.0078C46.4563 39.1865 46.2325 39.3038 45.9897 39.3416C46.0038 39.3222 46.0167 39.3019 46.0284 39.2808C46.016 39.3019 46.0024 39.3222 45.9876 39.3416C45.9475 39.3449 45.9073 39.3449 45.8672 39.3416C45.5989 39.3348 45.3421 39.2298 45.1445 39.0463C44.947 38.8628 44.8221 38.6131 44.793 38.3437C44.5352 37.8317 44.2989 37.3219 44.0819 36.8099L39.7957 38.1245V37.7341C39.7942 37.6084 39.8218 37.4841 39.8763 37.3711C39.9307 37.2582 40.0106 37.1596 40.1094 37.0832L44.0389 34.0461C44.3118 28.8938 43.7811 23.7372 43.3278 18.5806L36.4742 19.8388L35.5525 20.0059L35.0949 20.0927L34.1797 20.2597L31.0387 20.8367L28.7162 21.2706V20.609C28.7162 20.1751 29.0492 19.7803 29.6099 19.5243L31.0387 18.8735L32.491 18.201V17.3375C32.491 17.1154 32.5784 16.9025 32.7339 16.7454C32.8894 16.5884 33.1004 16.5002 33.3203 16.5002C33.5403 16.5002 33.7512 16.5884 33.9067 16.7454C34.0622 16.9025 34.1496 17.1154 34.1496 17.3375V17.4243L34.1797 17.4113L35.0949 16.9774L35.5547 16.7605L36.4721 16.3375L39.5744 14.9057V14.2548C39.5767 14.044 39.6578 13.8417 39.8013 13.6886C39.9449 13.5354 40.1404 13.4425 40.3487 13.4286C40.5571 13.4146 40.7631 13.4805 40.9254 13.6132C41.0878 13.7459 41.1945 13.9355 41.2245 14.1442L42.9303 13.3567C42.8014 11.1722 42.7391 8.98759 42.81 6.80302C42.8454 5.87565 43.0117 4.95813 43.3041 4.07828C43.6027 3.20439 43.987 2.36283 44.4514 1.56614C44.836 0.884953 45.3645 0.542191 45.8737 0.542191C45.9145 0.539973 45.9554 0.539973 45.9962 0.542191C46.4667 0.594256 46.9415 0.932679 47.3003 1.55963C47.7571 2.36104 48.1342 3.20616 48.426 4.08262C48.7184 4.96247 48.8848 5.87999 48.9202 6.80736C48.9932 8.99193 48.9309 11.1765 48.8042 13.3611L50.51 14.1485C50.5399 13.9404 50.6465 13.7513 50.8084 13.619C50.9703 13.4867 51.1758 13.4209 51.3836 13.4349C51.5914 13.4489 51.7864 13.5415 51.9296 13.6943C52.0727 13.8471 52.1535 14.0489 52.1558 14.2592V14.91L57.5784 17.4243V17.3375C57.5727 17.2238 57.5899 17.1102 57.6291 17.0034C57.6682 16.8966 57.7285 16.799 57.8061 16.7165C57.8838 16.634 57.9773 16.5683 58.0809 16.5234C58.1845 16.4785 58.2961 16.4553 58.4088 16.4553C58.5216 16.4553 58.6331 16.4785 58.7367 16.5234C58.8403 16.5683 58.9338 16.634 59.0115 16.7165C59.0892 16.799 59.1494 16.8966 59.1885 17.0034C59.2277 17.1102 59.2449 17.2238 59.2392 17.3375V18.1901L62.1288 19.5243C62.6896 19.7824 63.0162 20.1751 63.0162 20.609V21.2598L48.4024 18.5893Z" stroke="white" stroke-width="5" stroke-linecap="round" stroke-linejoin="round"/>
<path d="M48.4024 18.5893C47.9491 23.7459 47.4206 28.9025 47.6913 34.0548L51.6208 37.0919C51.7198 37.1684 51.8 37.2669 51.8552 37.3798C51.9103 37.4926 51.9389 37.6169 51.9388 37.7427V38.1332L47.6419 36.8186C47.427 37.3306 47.1907 37.8404 46.9329 38.3523C46.9047 38.5988 46.7971 38.829 46.6267 39.0078C46.4563 39.1865 46.2325 39.3038 45.9897 39.3416C46.0038 39.3222 46.0167 39.3019 46.0284 39.2808C46.016 39.3019 46.0024 39.3222 45.9876 39.3416C45.9475 39.3449 45.9073 39.3449 45.8672 39.3416C45.5989 39.3348 45.3421 39.2298 45.1445 39.0463C44.947 38.8628 44.8221 38.6131 44.793 38.3437C44.5352 37.8317 44.2989 37.3219 44.0819 36.8099L39.7957 38.1245V37.7341C39.7942 37.6084 39.8218 37.4841 39.8763 37.3711C39.9307 37.2582 40.0106 37.1596 40.1094 37.0832L44.0389 34.0461C44.3118 28.8938 43.7811 23.7372 43.3278 18.5806L36.4742 19.8388L35.5525 20.0059L35.0949 20.0927L34.1797 20.2597L31.0387 20.8367L28.7162 21.2706V20.609C28.7162 20.1751 29.0492 19.7803 29.6099 19.5243L31.0387 18.8735L32.491 18.201V17.3375C32.491 17.1154 32.5784 16.9025 32.7339 16.7454C32.8894 16.5884 33.1004 16.5002 33.3203 16.5002C33.5403 16.5002 33.7512 16.5884 33.9067 16.7454C34.0622 16.9025 34.1496 17.1154 34.1496 17.3375V17.4243L34.1797 17.4113L35.0949 16.9774L35.5547 16.7605L36.4721 16.3375L39.5744 14.9057V14.2548C39.5767 14.044 39.6578 13.8417 39.8013 13.6886C39.9449 13.5354 40.1404 13.4425 40.3487 13.4286C40.5571 13.4146 40.7631 13.4805 40.9254 13.6132C41.0878 13.7459 41.1945 13.9355 41.2245 14.1442L42.9303 13.3567C42.8014 11.1722 42.7391 8.98759 42.81 6.80302C42.8454 5.87565 43.0117 4.95813 43.3041 4.07828C43.6027 3.20439 43.987 2.36283 44.4514 1.56614C44.836 0.884953 45.3645 0.542191 45.8737 0.542191C45.9145 0.539973 45.9554 0.539973 45.9962 0.542191C46.4667 0.594256 46.9415 0.932679 47.3003 1.55963C47.7571 2.36104 48.1342 3.20616 48.426 4.08262C48.7184 4.96247 48.8848 5.87999 48.9202 6.80736C48.9932 8.99193 48.9309 11.1765 48.8042 13.3611L50.51 14.1485C50.5399 13.9404 50.6465 13.7513 50.8084 13.619C50.9703 13.4867 51.1758 13.4209 51.3836 13.4349C51.5914 13.4489 51.7864 13.5415 51.9296 13.6943C52.0727 13.8471 52.1535 14.0489 52.1558 14.2592V14.91L57.5784 17.4243V17.3375C57.5727 17.2238 57.5899 17.1102 57.6291 17.0034C57.6682 16.8966 57.7285 16.799 57.8061 16.7165C57.8838 16.634 57.9773 16.5683 58.0809 16.5234C58.1845 16.4785 58.2961 16.4553 58.4088 16.4553C58.5216 16.4553 58.6331 16.4785 58.7367 16.5234C58.8403 16.5683 58.9338 16.634 59.0115 16.7165C59.0892 16.799 59.1494 16.8966 59.1885 17.0034C59.2277 17.1102 59.2449 17.2238 59.2392 17.3375V18.1901L62.1288 19.5243C62.6896 19.7824 63.0162 20.1751 63.0162 20.609V21.2598L48.4024 18.5893Z" fill="#FF8141"/>
</g>
<defs>
<clipPath id="clip0_178_634">
<rect width="126" height="77" fill="white"/>
</clipPath>
</defs>
</svg>
